<svg width="48" height="48" viewBox="0 0 48 48" fill="none" xmlns="http://www.w3.org/2000/svg">
<circle opacity="0.1" cx="24" cy="24" r="24" fill="#6083FF"/>
<path d="M29.0587 27.521C29.5265 27.2015 30.0752 27.0211 30.6413 27.0004C31.2074 26.9798 31.7678 27.1199 32.2576 27.4044C32.7474 27.689 33.1466 28.1064 33.4091 28.6084C33.6716 29.1104 33.7865 29.6764 33.7407 30.241C32.5409 30.6603 31.2665 30.8235 29.9997 30.72C29.9958 29.5866 29.6695 28.4768 29.0587 27.522C28.5166 26.6718 27.7689 25.972 26.8846 25.4875C26.0003 25.003 25.0081 24.7493 23.9997 24.75C22.9916 24.7495 21.9996 25.0032 21.1155 25.4877C20.2314 25.9723 19.4837 26.6719 18.9417 27.522M29.9987 30.719L29.9997 30.75C29.9997 30.975 29.9877 31.197 29.9627 31.416C28.1481 32.4571 26.0918 33.0033 23.9997 33C21.8297 33 19.7927 32.424 18.0367 31.416C18.011 31.1846 17.9987 30.9519 17.9997 30.719M17.9997 30.719C16.7334 30.8263 15.4596 30.6637 14.2607 30.242C14.2151 29.6776 14.3301 29.1117 14.5926 28.6099C14.855 28.1081 15.2541 27.6908 15.7437 27.4063C16.2334 27.1218 16.7935 26.9817 17.3595 27.0021C17.9254 27.0226 18.474 27.2028 18.9417 27.522M17.9997 30.719C18.0033 29.5857 18.3314 28.4769 18.9417 27.522M26.9997 18.75C26.9997 19.5456 26.6837 20.3087 26.1211 20.8713C25.5585 21.4339 24.7954 21.75 23.9997 21.75C23.2041 21.75 22.441 21.4339 21.8784 20.8713C21.3158 20.3087 20.9997 19.5456 20.9997 18.75C20.9997 17.9544 21.3158 17.1913 21.8784 16.6287C22.441 16.0661 23.2041 15.75 23.9997 15.75C24.7954 15.75 25.5585 16.0661 26.1211 16.6287C26.6837 17.1913 26.9997 17.9544 26.9997 18.75ZM32.9997 21.75C32.9997 22.0455 32.9415 22.3381 32.8285 22.611C32.7154 22.884 32.5497 23.1321 32.3407 23.341C32.1318 23.5499 31.8838 23.7157 31.6108 23.8287C31.3378 23.9418 31.0452 24 30.7497 24C30.4543 24 30.1617 23.9418 29.8887 23.8287C29.6157 23.7157 29.3677 23.5499 29.1588 23.341C28.9498 23.1321 28.7841 22.884 28.671 22.611C28.5579 22.3381 28.4997 22.0455 28.4997 21.75C28.4997 21.1533 28.7368 20.581 29.1588 20.159C29.5807 19.7371 30.153 19.5 30.7497 19.5C31.3465 19.5 31.9188 19.7371 32.3407 20.159C32.7627 20.581 32.9997 21.1533 32.9997 21.75ZM19.4997 21.75C19.4997 22.0455 19.4415 22.3381 19.3285 22.611C19.2154 22.884 19.0497 23.1321 18.8407 23.341C18.6318 23.5499 18.3838 23.7157 18.1108 23.8287C17.8378 23.9418 17.5452 24 17.2497 24C16.9543 24 16.6617 23.9418 16.3887 23.8287C16.1157 23.7157 15.8677 23.5499 15.6588 23.341C15.4498 23.1321 15.2841 22.884 15.171 22.611C15.0579 22.3381 14.9997 22.0455 14.9997 21.75C14.9997 21.1533 15.2368 20.581 15.6588 20.159C16.0807 19.7371 16.653 19.5 17.2497 19.5C17.8465 19.5 18.4188 19.7371 18.8407 20.159C19.2627 20.581 19.4997 21.1533 19.4997 21.75Z" stroke="#080055" strokeWidth="1.5" strokeLinecap="round" strokeLinejoin="round"/>
</svg>
