<svg width="20" height="20" viewBox="0 0 20 20" fill="none" xmlns="http://www.w3.org/2000/svg">
<path fill-rule="evenodd" clip-rule="evenodd" d="M0.25 10C0.25 4.615 4.615 0.25 10 0.25C15.385 0.25 19.75 4.615 19.75 10C19.75 15.385 15.385 19.75 10 19.75C4.615 19.75 0.25 15.385 0.25 10ZM14.274 9.017C14.4492 9.1145 14.5951 9.25703 14.6967 9.42986C14.7983 9.60269 14.8519 9.79952 14.8519 10C14.8519 10.2005 14.7983 10.3973 14.6967 10.5701C14.5951 10.743 14.4492 10.8855 14.274 10.983L8.671 14.096C8.49979 14.191 8.30674 14.2397 8.11093 14.2373C7.91513 14.2348 7.72336 14.1813 7.55458 14.082C7.3858 13.9828 7.24586 13.8411 7.14859 13.6712C7.05133 13.5012 7.00011 13.3088 7 13.113V6.887C7 6.03 7.921 5.487 8.671 5.904L14.274 9.017Z" fill="#6083FF"/>
</svg>
