<svg width="192" height="227" viewBox="0 0 192 227" fill="none" xmlns="http://www.w3.org/2000/svg">
<path d="M186.567 26.9827L97.5637 0.28088C96.3171 -0.0936266 94.9893 -0.0936266 93.7427 0.28088L4.73581 26.9827C1.926 27.8259 0 30.4142 0 33.3492V131.255C0 143.99 5.15525 157.025 15.3224 170.001C23.0874 179.91 33.8302 189.861 47.2523 199.577C69.7993 215.899 92.0029 225.911 92.937 226.328C93.8005 226.715 94.7271 226.909 95.6526 226.909C96.5793 226.909 97.5059 226.716 98.3694 226.328C99.3024 225.911 121.505 215.899 144.054 199.577C157.475 189.861 168.218 179.91 175.983 170.001C186.15 157.026 191.305 143.99 191.305 131.255V33.3492C191.305 30.4142 189.38 27.8259 186.567 26.9827Z" fill="#D5FFF0"/>
<path d="M122.194 93.3404H65.0387C57.3147 93.3404 50.9941 99.661 50.9941 107.384V144.64C50.9941 152.364 57.3147 158.684 65.0387 158.684H122.194C129.918 158.684 136.239 152.364 136.239 144.64V107.384C136.239 99.661 129.918 93.3404 122.194 93.3404ZM93.6166 137.639C88.0207 137.639 83.4824 133.101 83.4824 127.504C83.4824 121.906 88.0207 117.37 93.6166 117.37C99.2152 117.37 103.751 121.906 103.751 127.504C103.751 133.101 99.2152 137.639 93.6166 137.639Z" fill="#51CEA2"/>
<path d="M70.4444 97.4283C68.2105 96.9125 66.5136 94.9444 66.4405 92.5447L66.0396 79.5219C65.5798 64.4982 77.429 51.9014 92.453 51.4406C107.477 50.9808 120.075 62.8284 120.535 77.8521L120.907 90.0308C120.995 92.8875 118.75 95.274 115.893 95.3612C113.04 95.4491 110.652 93.2048 110.565 90.3483L110.191 78.1692C109.905 68.8486 102.091 61.4974 92.7705 61.7825C83.4498 62.0685 76.0982 69.8844 76.3833 79.2048L76.783 92.2283C76.8714 95.084 74.6264 97.4705 71.77 97.5578C71.3142 97.5722 70.8694 97.5264 70.4444 97.4283Z" fill="#616161"/>
</svg>
