<svg width="48" height="48" viewBox="0 0 48 48" fill="none" xmlns="http://www.w3.org/2000/svg">
<circle opacity="0.1" cx="24" cy="24" r="24" fill="#6083FF"/>
<path d="M15 25.125C15 24.504 15.504 24 16.125 24H18.375C18.996 24 19.5 24.504 19.5 25.125V31.875C19.5 32.496 18.996 33 18.375 33H16.125C15.8266 33 15.5405 32.8815 15.3295 32.6705C15.1185 32.4595 15 32.1734 15 31.875V25.125ZM21.75 20.625C21.75 20.004 22.254 19.5 22.875 19.5H25.125C25.746 19.5 26.25 20.004 26.25 20.625V31.875C26.25 32.496 25.746 33 25.125 33H22.875C22.5766 33 22.2905 32.8815 22.0795 32.6705C21.8685 32.4595 21.75 32.1734 21.75 31.875V20.625ZM28.5 16.125C28.5 15.504 29.004 15 29.625 15H31.875C32.496 15 33 15.504 33 16.125V31.875C33 32.496 32.496 33 31.875 33H29.625C29.3266 33 29.0405 32.8815 28.8295 32.6705C28.6185 32.4595 28.5 32.1734 28.5 31.875V16.125Z" stroke="#080055" strokeWidth="1.5" strokeLinecap="round" strokeLinejoin="round"/>
</svg>
