<svg width="48" height="48" viewBox="0 0 48 48" fill="none" xmlns="http://www.w3.org/2000/svg">
<circle opacity="0.1" cx="24" cy="24" r="24" fill="#6083FF"/>
<path d="M28.5 18V18.75M28.5 21.75V22.5M28.5 25.5V26.25M28.5 29.25V30M19.5 24.75H24.75M19.5 27H22.5M15.375 17.25C14.754 17.25 14.25 17.754 14.25 18.375V21.401C14.7067 21.664 15.0861 22.0427 15.3499 22.4989C15.6137 22.9552 15.7526 23.473 15.7526 24C15.7526 24.527 15.6137 25.0448 15.3499 25.5011C15.0861 25.9573 14.7067 26.336 14.25 26.599V29.625C14.25 30.246 14.754 30.75 15.375 30.75H32.625C33.246 30.75 33.75 30.246 33.75 29.625V26.599C33.2933 26.336 32.9139 25.9573 32.6501 25.5011C32.3863 25.0448 32.2474 24.527 32.2474 24C32.2474 23.473 32.3863 22.9552 32.6501 22.4989C32.9139 22.0427 33.2933 21.664 33.75 21.401V18.375C33.75 17.754 33.246 17.25 32.625 17.25H15.375Z" stroke="#080055" strokeWidth="1.5" strokeLinecap="round" strokeLinejoin="round"/>
</svg>
