<svg width="104" height="25" viewBox="0 0 104 25" fill="none" xmlns="http://www.w3.org/2000/svg">
<rect width="104" height="25" rx="12.5" fill="#DFE6FF"/>
<path d="M13.1418 17.144C11.8858 17.144 10.8338 16.724 9.98583 15.884C9.14583 15.036 8.72583 13.988 8.72583 12.74C8.72583 11.492 9.14583 10.448 9.98583 9.608C10.8338 8.76 11.8858 8.336 13.1418 8.336C14.1018 8.336 14.9498 8.596 15.6858 9.116C16.4218 9.628 16.9178 10.256 17.1738 11H15.9378C15.6978 10.52 15.3298 10.132 14.8338 9.836C14.3378 9.54 13.7738 9.392 13.1418 9.392C12.1978 9.392 11.4098 9.716 10.7778 10.364C10.1538 11.004 9.84183 11.796 9.84183 12.74C9.84183 13.684 10.1538 14.48 10.7778 15.128C11.4098 15.768 12.1978 16.088 13.1418 16.088C14.0138 16.088 14.7298 15.816 15.2898 15.272C15.8578 14.728 16.1818 14.028 16.2618 13.172H13.0938V12.128H17.4138C17.5258 13.632 17.1658 14.844 16.3338 15.764C15.5018 16.684 14.4378 17.144 13.1418 17.144ZM21.4987 17.12C20.6267 17.12 19.9027 16.824 19.3267 16.232C18.7587 15.64 18.4747 14.896 18.4747 14C18.4747 13.096 18.7507 12.352 19.3027 11.768C19.8627 11.176 20.6027 10.88 21.5227 10.88C22.4507 10.88 23.1787 11.208 23.7067 11.864C24.2347 12.52 24.4667 13.324 24.4027 14.276H19.5187C19.5347 14.82 19.7347 15.276 20.1187 15.644C20.5027 16.004 20.9667 16.184 21.5107 16.184C22.3267 16.184 22.9067 15.848 23.2507 15.176H24.3067C24.1547 15.736 23.8307 16.2 23.3347 16.568C22.8387 16.936 22.2267 17.12 21.4987 17.12ZM22.6747 12.224C22.3467 11.936 21.9507 11.792 21.4867 11.792C21.0227 11.792 20.6067 11.932 20.2387 12.212C19.8787 12.492 19.6547 12.908 19.5667 13.46H23.3107C23.2147 12.916 23.0027 12.504 22.6747 12.224ZM28.1379 17.06C27.5859 17.06 27.1419 16.904 26.8059 16.592C26.4699 16.28 26.3019 15.824 26.3019 15.224V11.948H25.0299V11H26.3019V9.332H27.3339V11H29.0619V11.948H27.3339V15.092C27.3339 15.468 27.4139 15.732 27.5739 15.884C27.7339 16.036 27.9859 16.112 28.3299 16.112C28.6339 16.112 28.8779 16.072 29.0619 15.992V16.916C28.7739 17.012 28.4659 17.06 28.1379 17.06ZM35.6597 17L32.0237 8.48H33.2597L36.1277 15.26L39.0077 8.48H40.2197L36.5957 17H35.6597ZM43.1315 17.12C42.2595 17.12 41.5355 16.824 40.9595 16.232C40.3915 15.64 40.1075 14.896 40.1075 14C40.1075 13.096 40.3835 12.352 40.9355 11.768C41.4955 11.176 42.2355 10.88 43.1555 10.88C44.0835 10.88 44.8115 11.208 45.3395 11.864C45.8675 12.52 46.0995 13.324 46.0355 14.276H41.1515C41.1675 14.82 41.3675 15.276 41.7515 15.644C42.1355 16.004 42.5995 16.184 43.1435 16.184C43.9595 16.184 44.5395 15.848 44.8835 15.176H45.9395C45.7875 15.736 45.4635 16.2 44.9675 16.568C44.4715 16.936 43.8595 17.12 43.1315 17.12ZM44.3075 12.224C43.9795 11.936 43.5835 11.792 43.1195 11.792C42.6555 11.792 42.2395 11.932 41.8715 12.212C41.5115 12.492 41.2875 12.908 41.1995 13.46H44.9435C44.8475 12.916 44.6355 12.504 44.3075 12.224ZM47.5247 17V11H48.5567V12.164C48.6687 11.796 48.8847 11.5 49.2047 11.276C49.5327 11.052 49.8767 10.94 50.2367 10.94C50.4127 10.94 50.5687 10.956 50.7047 10.988V12.056C50.5607 11.992 50.3727 11.96 50.1407 11.96C49.7247 11.96 49.3567 12.14 49.0367 12.5C48.7167 12.86 48.5567 13.368 48.5567 14.024V17H47.5247ZM52.9633 9.188C52.8273 9.324 52.6553 9.392 52.4473 9.392C52.2393 9.392 52.0633 9.324 51.9193 9.188C51.7753 9.044 51.7033 8.868 51.7033 8.66C51.7033 8.46 51.7753 8.288 51.9193 8.144C52.0633 8 52.2393 7.928 52.4473 7.928C52.6553 7.928 52.8273 8 52.9633 8.144C53.0993 8.288 53.1673 8.46 53.1673 8.66C53.1673 8.868 53.0993 9.044 52.9633 9.188ZM51.9193 17V11H52.9513V17H51.9193ZM55.4115 17V11.948H54.1395V11H55.4115V9.788C55.4115 9.188 55.5795 8.728 55.9155 8.408C56.2515 8.088 56.6955 7.928 57.2475 7.928C57.5755 7.928 57.8875 7.98 58.1835 8.084V8.996C57.9995 8.916 57.7515 8.876 57.4395 8.876C57.0955 8.876 56.8435 8.952 56.6835 9.104C56.5235 9.256 56.4435 9.52 56.4435 9.896V11H58.1835V11.948H56.4435V17H55.4115ZM60.3555 9.188C60.2195 9.324 60.0475 9.392 59.8395 9.392C59.6315 9.392 59.4555 9.324 59.3115 9.188C59.1675 9.044 59.0955 8.868 59.0955 8.66C59.0955 8.46 59.1675 8.288 59.3115 8.144C59.4555 8 59.6315 7.928 59.8395 7.928C60.0475 7.928 60.2195 8 60.3555 8.144C60.4915 8.288 60.5595 8.46 60.5595 8.66C60.5595 8.868 60.4915 9.044 60.3555 9.188ZM59.3115 17V11H60.3435V17H59.3115ZM64.8464 17.12C63.9744 17.12 63.2504 16.824 62.6744 16.232C62.1064 15.64 61.8224 14.896 61.8224 14C61.8224 13.096 62.0984 12.352 62.6504 11.768C63.2104 11.176 63.9504 10.88 64.8704 10.88C65.7984 10.88 66.5264 11.208 67.0544 11.864C67.5824 12.52 67.8144 13.324 67.7504 14.276H62.8664C62.8824 14.82 63.0824 15.276 63.4664 15.644C63.8504 16.004 64.3144 16.184 64.8584 16.184C65.6744 16.184 66.2544 15.848 66.5984 15.176H67.6544C67.5024 15.736 67.1784 16.2 66.6824 16.568C66.1864 16.936 65.5744 17.12 64.8464 17.12ZM66.0224 12.224C65.6944 11.936 65.2984 11.792 64.8344 11.792C64.3704 11.792 63.9544 11.932 63.5864 12.212C63.2264 12.492 63.0024 12.908 62.9144 13.46H66.6584C66.5624 12.916 66.3504 12.504 66.0224 12.224ZM71.7116 17.12C70.8796 17.12 70.1796 16.816 69.6116 16.208C69.0516 15.6 68.7716 14.864 68.7716 14C68.7716 13.136 69.0516 12.4 69.6116 11.792C70.1796 11.184 70.8796 10.88 71.7116 10.88C72.1516 10.88 72.5596 10.98 72.9356 11.18C73.3196 11.372 73.6156 11.62 73.8236 11.924V8H74.8556V17H73.8236V16.076C73.6156 16.38 73.3196 16.632 72.9356 16.832C72.5596 17.024 72.1516 17.12 71.7116 17.12ZM71.8676 16.172C72.4596 16.172 72.9476 15.964 73.3316 15.548C73.7156 15.132 73.9076 14.616 73.9076 14C73.9076 13.384 73.7156 12.868 73.3316 12.452C72.9476 12.036 72.4596 11.828 71.8676 11.828C71.2676 11.828 70.7756 12.036 70.3916 12.452C70.0076 12.868 69.8156 13.384 69.8156 14C69.8156 14.616 70.0076 15.132 70.3916 15.548C70.7756 15.964 71.2676 16.172 71.8676 16.172Z" fill="#6083FF"/>
<path d="M88.5 14.5L90.5 12.5M90.5 12.5L88.5 10.5M90.5 12.5H85.5M94 12.5C94 13.2879 93.8448 14.0681 93.5433 14.7961C93.2417 15.5241 92.7998 16.1855 92.2426 16.7426C91.6855 17.2998 91.0241 17.7417 90.2961 18.0433C89.5681 18.3448 88.7879 18.5 88 18.5C87.2121 18.5 86.4319 18.3448 85.7039 18.0433C84.9759 17.7417 84.3145 17.2998 83.7574 16.7426C83.2002 16.1855 82.7583 15.5241 82.4567 14.7961C82.1552 14.0681 82 13.2879 82 12.5C82 10.9087 82.6321 9.38258 83.7574 8.25736C84.8826 7.13214 86.4087 6.5 88 6.5C89.5913 6.5 91.1174 7.13214 92.2426 8.25736C93.3679 9.38258 94 10.9087 94 12.5Z" stroke="#6083FF" stroke-width="1.5" stroke-linecap="round" stroke-linejoin="round"/>
</svg>
